<mxfile host="Electron" agent="Mozilla/5.0 (Macintosh; Intel Mac OS X 10_15_7) AppleWebKit/537.36 (KHTML, like Gecko) draw.io/25.0.2 Chrome/128.0.6613.186 Electron/32.2.5 Safari/537.36" version="25.0.2">
  <diagram name="第 1 页" id="304p4kNZP8jcC5MDcQbG">
    <mxGraphModel dx="909" dy="682" grid="1" gridSize="10" guides="1" tooltips="1" connect="1" arrows="1" fold="1" page="1" pageScale="1" pageWidth="827" pageHeight="1169" math="0" shadow="0">
      <root>
        <mxCell id="0" />
        <mxCell id="1" parent="0" />
        <mxCell id="DflLgNh3QcK3dV--dXvt-20" style="edgeStyle=orthogonalEdgeStyle;rounded=0;orthogonalLoop=1;jettySize=auto;html=1;entryX=0.5;entryY=0;entryDx=0;entryDy=0;" edge="1" parent="1" source="DflLgNh3QcK3dV--dXvt-1" target="DflLgNh3QcK3dV--dXvt-3">
          <mxGeometry relative="1" as="geometry" />
        </mxCell>
        <mxCell id="DflLgNh3QcK3dV--dXvt-1" value="" style="ellipse;fillColor=strokeColor;html=1;" vertex="1" parent="1">
          <mxGeometry x="520" y="50" width="20" height="20" as="geometry" />
        </mxCell>
        <mxCell id="DflLgNh3QcK3dV--dXvt-21" style="edgeStyle=orthogonalEdgeStyle;rounded=0;orthogonalLoop=1;jettySize=auto;html=1;entryX=0.5;entryY=0;entryDx=0;entryDy=0;" edge="1" parent="1" source="DflLgNh3QcK3dV--dXvt-3" target="DflLgNh3QcK3dV--dXvt-4">
          <mxGeometry relative="1" as="geometry" />
        </mxCell>
        <mxCell id="DflLgNh3QcK3dV--dXvt-3" value="customer request room" style="rounded=1;whiteSpace=wrap;html=1;" vertex="1" parent="1">
          <mxGeometry x="460" y="90" width="140" height="20" as="geometry" />
        </mxCell>
        <mxCell id="DflLgNh3QcK3dV--dXvt-6" value="" style="edgeStyle=orthogonalEdgeStyle;rounded=0;orthogonalLoop=1;jettySize=auto;html=1;" edge="1" parent="1" source="DflLgNh3QcK3dV--dXvt-4" target="DflLgNh3QcK3dV--dXvt-5">
          <mxGeometry relative="1" as="geometry" />
        </mxCell>
        <mxCell id="DflLgNh3QcK3dV--dXvt-4" value="check room availablity" style="rounded=1;whiteSpace=wrap;html=1;" vertex="1" parent="1">
          <mxGeometry x="460" y="130" width="140" height="20" as="geometry" />
        </mxCell>
        <mxCell id="DflLgNh3QcK3dV--dXvt-23" style="edgeStyle=orthogonalEdgeStyle;rounded=0;orthogonalLoop=1;jettySize=auto;html=1;exitX=0;exitY=0.5;exitDx=0;exitDy=0;entryX=0.5;entryY=0;entryDx=0;entryDy=0;" edge="1" parent="1" source="DflLgNh3QcK3dV--dXvt-5" target="DflLgNh3QcK3dV--dXvt-10">
          <mxGeometry relative="1" as="geometry" />
        </mxCell>
        <mxCell id="DflLgNh3QcK3dV--dXvt-104" style="edgeStyle=orthogonalEdgeStyle;rounded=0;orthogonalLoop=1;jettySize=auto;html=1;entryX=0.5;entryY=0;entryDx=0;entryDy=0;" edge="1" parent="1" source="DflLgNh3QcK3dV--dXvt-5" target="DflLgNh3QcK3dV--dXvt-7">
          <mxGeometry relative="1" as="geometry" />
        </mxCell>
        <mxCell id="DflLgNh3QcK3dV--dXvt-5" value="room availble?" style="rhombus;whiteSpace=wrap;html=1;rounded=1;" vertex="1" parent="1">
          <mxGeometry x="470" y="170" width="120" height="40" as="geometry" />
        </mxCell>
        <mxCell id="DflLgNh3QcK3dV--dXvt-100" style="edgeStyle=orthogonalEdgeStyle;rounded=0;orthogonalLoop=1;jettySize=auto;html=1;entryX=0.5;entryY=0;entryDx=0;entryDy=0;" edge="1" parent="1" source="DflLgNh3QcK3dV--dXvt-7" target="DflLgNh3QcK3dV--dXvt-99">
          <mxGeometry relative="1" as="geometry" />
        </mxCell>
        <mxCell id="DflLgNh3QcK3dV--dXvt-7" value="inform no availablity" style="rounded=1;whiteSpace=wrap;html=1;" vertex="1" parent="1">
          <mxGeometry x="610" y="210" width="140" height="20" as="geometry" />
        </mxCell>
        <mxCell id="DflLgNh3QcK3dV--dXvt-12" value="" style="edgeStyle=orthogonalEdgeStyle;rounded=0;orthogonalLoop=1;jettySize=auto;html=1;" edge="1" parent="1" source="DflLgNh3QcK3dV--dXvt-10" target="DflLgNh3QcK3dV--dXvt-11">
          <mxGeometry relative="1" as="geometry" />
        </mxCell>
        <mxCell id="DflLgNh3QcK3dV--dXvt-10" value="insert customer data" style="rounded=1;whiteSpace=wrap;html=1;" vertex="1" parent="1">
          <mxGeometry x="344" y="210" width="140" height="20" as="geometry" />
        </mxCell>
        <mxCell id="DflLgNh3QcK3dV--dXvt-25" style="edgeStyle=orthogonalEdgeStyle;rounded=0;orthogonalLoop=1;jettySize=auto;html=1;entryX=0.5;entryY=0;entryDx=0;entryDy=0;" edge="1" parent="1" source="DflLgNh3QcK3dV--dXvt-11" target="DflLgNh3QcK3dV--dXvt-13">
          <mxGeometry relative="1" as="geometry" />
        </mxCell>
        <mxCell id="DflLgNh3QcK3dV--dXvt-11" value="verify credit card" style="rounded=1;whiteSpace=wrap;html=1;" vertex="1" parent="1">
          <mxGeometry x="344" y="250" width="140" height="20" as="geometry" />
        </mxCell>
        <mxCell id="DflLgNh3QcK3dV--dXvt-26" style="edgeStyle=orthogonalEdgeStyle;rounded=0;orthogonalLoop=1;jettySize=auto;html=1;entryX=0.5;entryY=0;entryDx=0;entryDy=0;" edge="1" parent="1" source="DflLgNh3QcK3dV--dXvt-13" target="DflLgNh3QcK3dV--dXvt-15">
          <mxGeometry relative="1" as="geometry" />
        </mxCell>
        <mxCell id="DflLgNh3QcK3dV--dXvt-27" style="edgeStyle=orthogonalEdgeStyle;rounded=0;orthogonalLoop=1;jettySize=auto;html=1;entryX=0.5;entryY=0;entryDx=0;entryDy=0;" edge="1" parent="1" source="DflLgNh3QcK3dV--dXvt-13" target="DflLgNh3QcK3dV--dXvt-14">
          <mxGeometry relative="1" as="geometry" />
        </mxCell>
        <mxCell id="DflLgNh3QcK3dV--dXvt-13" value="credit card valid?" style="rhombus;whiteSpace=wrap;html=1;rounded=1;" vertex="1" parent="1">
          <mxGeometry x="354" y="290" width="120" height="40" as="geometry" />
        </mxCell>
        <mxCell id="DflLgNh3QcK3dV--dXvt-68" style="edgeStyle=orthogonalEdgeStyle;rounded=0;orthogonalLoop=1;jettySize=auto;html=1;" edge="1" parent="1" source="DflLgNh3QcK3dV--dXvt-14">
          <mxGeometry relative="1" as="geometry">
            <mxPoint x="250" y="370" as="targetPoint" />
          </mxGeometry>
        </mxCell>
        <mxCell id="DflLgNh3QcK3dV--dXvt-14" value="confirm booking" style="rounded=1;whiteSpace=wrap;html=1;" vertex="1" parent="1">
          <mxGeometry x="180" y="330" width="140" height="20" as="geometry" />
        </mxCell>
        <mxCell id="DflLgNh3QcK3dV--dXvt-102" style="edgeStyle=orthogonalEdgeStyle;rounded=0;orthogonalLoop=1;jettySize=auto;html=1;entryX=0.5;entryY=1;entryDx=0;entryDy=0;" edge="1" parent="1" source="DflLgNh3QcK3dV--dXvt-15" target="DflLgNh3QcK3dV--dXvt-99">
          <mxGeometry relative="1" as="geometry" />
        </mxCell>
        <mxCell id="DflLgNh3QcK3dV--dXvt-15" value="request valid credit card" style="rounded=1;whiteSpace=wrap;html=1;" vertex="1" parent="1">
          <mxGeometry x="484" y="330" width="140" height="20" as="geometry" />
        </mxCell>
        <mxCell id="DflLgNh3QcK3dV--dXvt-16" value="" style="ellipse;html=1;shape=endState;fillColor=strokeColor;" vertex="1" parent="1">
          <mxGeometry x="700" y="530" width="20" height="20" as="geometry" />
        </mxCell>
        <mxCell id="DflLgNh3QcK3dV--dXvt-63" style="edgeStyle=orthogonalEdgeStyle;rounded=0;orthogonalLoop=1;jettySize=auto;html=1;entryX=0.5;entryY=0;entryDx=0;entryDy=0;" edge="1" parent="1" source="DflLgNh3QcK3dV--dXvt-30" target="DflLgNh3QcK3dV--dXvt-31">
          <mxGeometry relative="1" as="geometry" />
        </mxCell>
        <mxCell id="DflLgNh3QcK3dV--dXvt-30" value="wait for custom arrival" style="rounded=1;whiteSpace=wrap;html=1;" vertex="1" parent="1">
          <mxGeometry x="90" y="400" width="140" height="20" as="geometry" />
        </mxCell>
        <mxCell id="DflLgNh3QcK3dV--dXvt-85" style="edgeStyle=orthogonalEdgeStyle;rounded=0;orthogonalLoop=1;jettySize=auto;html=1;exitX=0;exitY=0.5;exitDx=0;exitDy=0;entryX=0.5;entryY=0;entryDx=0;entryDy=0;" edge="1" parent="1" source="DflLgNh3QcK3dV--dXvt-31" target="DflLgNh3QcK3dV--dXvt-32">
          <mxGeometry relative="1" as="geometry" />
        </mxCell>
        <mxCell id="DflLgNh3QcK3dV--dXvt-86" style="edgeStyle=orthogonalEdgeStyle;rounded=0;orthogonalLoop=1;jettySize=auto;html=1;exitX=1;exitY=0.5;exitDx=0;exitDy=0;entryX=0.5;entryY=0;entryDx=0;entryDy=0;" edge="1" parent="1" source="DflLgNh3QcK3dV--dXvt-31" target="DflLgNh3QcK3dV--dXvt-36">
          <mxGeometry relative="1" as="geometry" />
        </mxCell>
        <mxCell id="DflLgNh3QcK3dV--dXvt-31" value="customer arrives?" style="rhombus;whiteSpace=wrap;html=1;rounded=1;" vertex="1" parent="1">
          <mxGeometry x="100" y="440" width="120" height="40" as="geometry" />
        </mxCell>
        <mxCell id="DflLgNh3QcK3dV--dXvt-92" style="edgeStyle=orthogonalEdgeStyle;rounded=0;orthogonalLoop=1;jettySize=auto;html=1;entryX=0.5;entryY=0;entryDx=0;entryDy=0;" edge="1" parent="1" source="DflLgNh3QcK3dV--dXvt-32" target="DflLgNh3QcK3dV--dXvt-33">
          <mxGeometry relative="1" as="geometry" />
        </mxCell>
        <mxCell id="DflLgNh3QcK3dV--dXvt-32" value="check in customer" style="rounded=1;whiteSpace=wrap;html=1;" vertex="1" parent="1">
          <mxGeometry x="10" y="480" width="140" height="20" as="geometry" />
        </mxCell>
        <mxCell id="DflLgNh3QcK3dV--dXvt-93" style="edgeStyle=orthogonalEdgeStyle;rounded=0;orthogonalLoop=1;jettySize=auto;html=1;entryX=0.5;entryY=0;entryDx=0;entryDy=0;" edge="1" parent="1" source="DflLgNh3QcK3dV--dXvt-33" target="DflLgNh3QcK3dV--dXvt-34">
          <mxGeometry relative="1" as="geometry" />
        </mxCell>
        <mxCell id="DflLgNh3QcK3dV--dXvt-33" value="use room" style="rounded=1;whiteSpace=wrap;html=1;" vertex="1" parent="1">
          <mxGeometry x="10" y="520" width="140" height="20" as="geometry" />
        </mxCell>
        <mxCell id="DflLgNh3QcK3dV--dXvt-98" style="edgeStyle=orthogonalEdgeStyle;rounded=0;orthogonalLoop=1;jettySize=auto;html=1;entryX=0.5;entryY=0;entryDx=0;entryDy=0;" edge="1" parent="1" source="DflLgNh3QcK3dV--dXvt-34" target="DflLgNh3QcK3dV--dXvt-35">
          <mxGeometry relative="1" as="geometry" />
        </mxCell>
        <mxCell id="DflLgNh3QcK3dV--dXvt-34" value="process room" style="rounded=1;whiteSpace=wrap;html=1;" vertex="1" parent="1">
          <mxGeometry x="10" y="560" width="140" height="20" as="geometry" />
        </mxCell>
        <mxCell id="DflLgNh3QcK3dV--dXvt-35" value="check out customer" style="rounded=1;whiteSpace=wrap;html=1;" vertex="1" parent="1">
          <mxGeometry x="10" y="600" width="140" height="20" as="geometry" />
        </mxCell>
        <mxCell id="DflLgNh3QcK3dV--dXvt-90" style="edgeStyle=orthogonalEdgeStyle;rounded=0;orthogonalLoop=1;jettySize=auto;html=1;entryX=0.5;entryY=0;entryDx=0;entryDy=0;" edge="1" parent="1" source="DflLgNh3QcK3dV--dXvt-36" target="DflLgNh3QcK3dV--dXvt-37">
          <mxGeometry relative="1" as="geometry" />
        </mxCell>
        <mxCell id="DflLgNh3QcK3dV--dXvt-36" value="charge penalty fee" style="rounded=1;whiteSpace=wrap;html=1;" vertex="1" parent="1">
          <mxGeometry x="190" y="490" width="140" height="20" as="geometry" />
        </mxCell>
        <mxCell id="DflLgNh3QcK3dV--dXvt-37" value="cancel booking" style="rounded=1;whiteSpace=wrap;html=1;" vertex="1" parent="1">
          <mxGeometry x="190" y="550" width="140" height="20" as="geometry" />
        </mxCell>
        <mxCell id="DflLgNh3QcK3dV--dXvt-72" style="edgeStyle=orthogonalEdgeStyle;rounded=0;orthogonalLoop=1;jettySize=auto;html=1;exitX=0.5;exitY=1;exitDx=0;exitDy=0;entryX=0.5;entryY=0;entryDx=0;entryDy=0;" edge="1" parent="1" source="DflLgNh3QcK3dV--dXvt-43" target="DflLgNh3QcK3dV--dXvt-44">
          <mxGeometry relative="1" as="geometry" />
        </mxCell>
        <mxCell id="DflLgNh3QcK3dV--dXvt-74" style="edgeStyle=orthogonalEdgeStyle;rounded=0;orthogonalLoop=1;jettySize=auto;html=1;entryX=0;entryY=0.5;entryDx=0;entryDy=0;" edge="1" parent="1" source="DflLgNh3QcK3dV--dXvt-43" target="DflLgNh3QcK3dV--dXvt-45">
          <mxGeometry relative="1" as="geometry" />
        </mxCell>
        <mxCell id="DflLgNh3QcK3dV--dXvt-43" value="customer requests change?" style="rhombus;whiteSpace=wrap;html=1;rounded=1;" vertex="1" parent="1">
          <mxGeometry x="390" y="420" width="170" height="40" as="geometry" />
        </mxCell>
        <mxCell id="DflLgNh3QcK3dV--dXvt-44" value="modify reservation" style="rounded=1;whiteSpace=wrap;html=1;" vertex="1" parent="1">
          <mxGeometry x="405" y="490" width="140" height="20" as="geometry" />
        </mxCell>
        <mxCell id="DflLgNh3QcK3dV--dXvt-47" style="edgeStyle=orthogonalEdgeStyle;rounded=0;orthogonalLoop=1;jettySize=auto;html=1;entryX=0.5;entryY=0;entryDx=0;entryDy=0;" edge="1" parent="1" source="DflLgNh3QcK3dV--dXvt-45" target="DflLgNh3QcK3dV--dXvt-46">
          <mxGeometry relative="1" as="geometry" />
        </mxCell>
        <mxCell id="DflLgNh3QcK3dV--dXvt-76" style="edgeStyle=orthogonalEdgeStyle;rounded=0;orthogonalLoop=1;jettySize=auto;html=1;exitX=1;exitY=0.5;exitDx=0;exitDy=0;entryX=0.2;entryY=0.027;entryDx=0;entryDy=0;entryPerimeter=0;" edge="1" parent="1" source="DflLgNh3QcK3dV--dXvt-45" target="DflLgNh3QcK3dV--dXvt-50">
          <mxGeometry relative="1" as="geometry">
            <mxPoint x="780" y="550" as="targetPoint" />
          </mxGeometry>
        </mxCell>
        <mxCell id="DflLgNh3QcK3dV--dXvt-45" value="customer requests cancellation?" style="rhombus;whiteSpace=wrap;html=1;rounded=1;" vertex="1" parent="1">
          <mxGeometry x="590" y="420" width="170" height="40" as="geometry" />
        </mxCell>
        <mxCell id="DflLgNh3QcK3dV--dXvt-46" value="cancel booking" style="rounded=1;whiteSpace=wrap;html=1;" vertex="1" parent="1">
          <mxGeometry x="605" y="490" width="140" height="20" as="geometry" />
        </mxCell>
        <mxCell id="DflLgNh3QcK3dV--dXvt-48" value="yes" style="text;html=1;align=center;verticalAlign=middle;resizable=0;points=[];autosize=1;strokeColor=none;fillColor=none;" vertex="1" parent="1">
          <mxGeometry x="680" y="460" width="40" height="30" as="geometry" />
        </mxCell>
        <mxCell id="DflLgNh3QcK3dV--dXvt-49" value="" style="html=1;points=[];perimeter=orthogonalPerimeter;fillColor=strokeColor;direction=south;" vertex="1" parent="1">
          <mxGeometry x="20" y="640" width="320" height="5" as="geometry" />
        </mxCell>
        <mxCell id="DflLgNh3QcK3dV--dXvt-59" style="edgeStyle=orthogonalEdgeStyle;rounded=0;orthogonalLoop=1;jettySize=auto;html=1;entryX=0.5;entryY=0;entryDx=0;entryDy=0;" edge="1" parent="1" source="DflLgNh3QcK3dV--dXvt-50" target="DflLgNh3QcK3dV--dXvt-51">
          <mxGeometry relative="1" as="geometry">
            <Array as="points">
              <mxPoint x="574" y="580" />
              <mxPoint x="574" y="580" />
            </Array>
          </mxGeometry>
        </mxCell>
        <mxCell id="DflLgNh3QcK3dV--dXvt-50" value="" style="html=1;points=[];perimeter=orthogonalPerimeter;fillColor=strokeColor;direction=south;" vertex="1" parent="1">
          <mxGeometry x="414" y="560" width="376" height="5" as="geometry" />
        </mxCell>
        <mxCell id="DflLgNh3QcK3dV--dXvt-51" value="until check-in/cancellation" style="rounded=1;whiteSpace=wrap;html=1;" vertex="1" parent="1">
          <mxGeometry x="504" y="600" width="140" height="20" as="geometry" />
        </mxCell>
        <mxCell id="DflLgNh3QcK3dV--dXvt-55" style="edgeStyle=orthogonalEdgeStyle;rounded=0;orthogonalLoop=1;jettySize=auto;html=1;entryX=0.5;entryY=0;entryDx=0;entryDy=0;" edge="1" parent="1" source="DflLgNh3QcK3dV--dXvt-52" target="DflLgNh3QcK3dV--dXvt-53">
          <mxGeometry relative="1" as="geometry" />
        </mxCell>
        <mxCell id="DflLgNh3QcK3dV--dXvt-52" value="" style="html=1;points=[];perimeter=orthogonalPerimeter;fillColor=strokeColor;direction=south;" vertex="1" parent="1">
          <mxGeometry x="10" y="670" width="730" height="5" as="geometry" />
        </mxCell>
        <mxCell id="DflLgNh3QcK3dV--dXvt-53" value="" style="ellipse;html=1;shape=endState;fillColor=strokeColor;" vertex="1" parent="1">
          <mxGeometry x="365" y="700" width="20" height="20" as="geometry" />
        </mxCell>
        <mxCell id="DflLgNh3QcK3dV--dXvt-60" style="edgeStyle=orthogonalEdgeStyle;rounded=0;orthogonalLoop=1;jettySize=auto;html=1;entryX=0;entryY=0.227;entryDx=0;entryDy=0;entryPerimeter=0;" edge="1" parent="1" source="DflLgNh3QcK3dV--dXvt-51" target="DflLgNh3QcK3dV--dXvt-52">
          <mxGeometry relative="1" as="geometry" />
        </mxCell>
        <mxCell id="DflLgNh3QcK3dV--dXvt-61" style="edgeStyle=orthogonalEdgeStyle;rounded=0;orthogonalLoop=1;jettySize=auto;html=1;entryX=-0.6;entryY=0.767;entryDx=0;entryDy=0;entryPerimeter=0;" edge="1" parent="1" source="DflLgNh3QcK3dV--dXvt-49" target="DflLgNh3QcK3dV--dXvt-52">
          <mxGeometry relative="1" as="geometry" />
        </mxCell>
        <mxCell id="DflLgNh3QcK3dV--dXvt-70" style="edgeStyle=orthogonalEdgeStyle;rounded=0;orthogonalLoop=1;jettySize=auto;html=1;entryX=0.5;entryY=0;entryDx=0;entryDy=0;" edge="1" parent="1" source="DflLgNh3QcK3dV--dXvt-64" target="DflLgNh3QcK3dV--dXvt-30">
          <mxGeometry relative="1" as="geometry">
            <Array as="points">
              <mxPoint x="160" y="390" />
              <mxPoint x="160" y="390" />
            </Array>
          </mxGeometry>
        </mxCell>
        <mxCell id="DflLgNh3QcK3dV--dXvt-71" style="edgeStyle=orthogonalEdgeStyle;rounded=0;orthogonalLoop=1;jettySize=auto;html=1;entryX=0.5;entryY=0;entryDx=0;entryDy=0;" edge="1" parent="1" source="DflLgNh3QcK3dV--dXvt-64" target="DflLgNh3QcK3dV--dXvt-43">
          <mxGeometry relative="1" as="geometry">
            <Array as="points">
              <mxPoint x="475" y="390" />
              <mxPoint x="475" y="390" />
            </Array>
          </mxGeometry>
        </mxCell>
        <mxCell id="DflLgNh3QcK3dV--dXvt-64" value="" style="html=1;points=[];perimeter=orthogonalPerimeter;fillColor=strokeColor;direction=south;" vertex="1" parent="1">
          <mxGeometry x="50" y="375" width="710" height="5" as="geometry" />
        </mxCell>
        <mxCell id="DflLgNh3QcK3dV--dXvt-73" value="yes" style="text;html=1;align=center;verticalAlign=middle;resizable=0;points=[];autosize=1;strokeColor=none;fillColor=none;" vertex="1" parent="1">
          <mxGeometry x="470" y="458" width="40" height="30" as="geometry" />
        </mxCell>
        <mxCell id="DflLgNh3QcK3dV--dXvt-75" value="no" style="text;html=1;align=center;verticalAlign=middle;resizable=0;points=[];autosize=1;strokeColor=none;fillColor=none;" vertex="1" parent="1">
          <mxGeometry x="550" y="408" width="40" height="30" as="geometry" />
        </mxCell>
        <mxCell id="DflLgNh3QcK3dV--dXvt-82" style="edgeStyle=orthogonalEdgeStyle;rounded=0;orthogonalLoop=1;jettySize=auto;html=1;entryX=0;entryY=0.5;entryDx=0;entryDy=0;" edge="1" parent="1" source="DflLgNh3QcK3dV--dXvt-46" target="DflLgNh3QcK3dV--dXvt-16">
          <mxGeometry relative="1" as="geometry" />
        </mxCell>
        <mxCell id="DflLgNh3QcK3dV--dXvt-83" style="edgeStyle=orthogonalEdgeStyle;rounded=0;orthogonalLoop=1;jettySize=auto;html=1;entryX=-0.8;entryY=0.838;entryDx=0;entryDy=0;entryPerimeter=0;" edge="1" parent="1" source="DflLgNh3QcK3dV--dXvt-44" target="DflLgNh3QcK3dV--dXvt-50">
          <mxGeometry relative="1" as="geometry" />
        </mxCell>
        <mxCell id="DflLgNh3QcK3dV--dXvt-87" value="yes" style="text;html=1;align=center;verticalAlign=middle;resizable=0;points=[];autosize=1;strokeColor=none;fillColor=none;" vertex="1" parent="1">
          <mxGeometry x="50" y="438" width="40" height="30" as="geometry" />
        </mxCell>
        <mxCell id="DflLgNh3QcK3dV--dXvt-89" value="no" style="text;html=1;align=center;verticalAlign=middle;resizable=0;points=[];autosize=1;strokeColor=none;fillColor=none;" vertex="1" parent="1">
          <mxGeometry x="230" y="428" width="40" height="30" as="geometry" />
        </mxCell>
        <mxCell id="DflLgNh3QcK3dV--dXvt-91" style="edgeStyle=orthogonalEdgeStyle;rounded=0;orthogonalLoop=1;jettySize=auto;html=1;entryX=0;entryY=0.25;entryDx=0;entryDy=0;entryPerimeter=0;" edge="1" parent="1" source="DflLgNh3QcK3dV--dXvt-37" target="DflLgNh3QcK3dV--dXvt-49">
          <mxGeometry relative="1" as="geometry" />
        </mxCell>
        <mxCell id="DflLgNh3QcK3dV--dXvt-97" style="edgeStyle=orthogonalEdgeStyle;rounded=0;orthogonalLoop=1;jettySize=auto;html=1;entryX=0;entryY=0.813;entryDx=0;entryDy=0;entryPerimeter=0;" edge="1" parent="1" source="DflLgNh3QcK3dV--dXvt-35" target="DflLgNh3QcK3dV--dXvt-49">
          <mxGeometry relative="1" as="geometry" />
        </mxCell>
        <mxCell id="DflLgNh3QcK3dV--dXvt-99" value="" style="ellipse;html=1;shape=endState;fillColor=strokeColor;" vertex="1" parent="1">
          <mxGeometry x="670" y="290" width="20" height="20" as="geometry" />
        </mxCell>
        <mxCell id="DflLgNh3QcK3dV--dXvt-103" style="edgeStyle=orthogonalEdgeStyle;rounded=0;orthogonalLoop=1;jettySize=auto;html=1;exitX=0.5;exitY=1;exitDx=0;exitDy=0;" edge="1" parent="1" source="DflLgNh3QcK3dV--dXvt-7" target="DflLgNh3QcK3dV--dXvt-7">
          <mxGeometry relative="1" as="geometry" />
        </mxCell>
        <mxCell id="DflLgNh3QcK3dV--dXvt-105" value="yes" style="text;html=1;align=center;verticalAlign=middle;resizable=0;points=[];autosize=1;strokeColor=none;fillColor=none;" vertex="1" parent="1">
          <mxGeometry x="280" y="278" width="40" height="30" as="geometry" />
        </mxCell>
        <mxCell id="DflLgNh3QcK3dV--dXvt-106" value="no" style="text;html=1;align=center;verticalAlign=middle;resizable=0;points=[];autosize=1;strokeColor=none;fillColor=none;" vertex="1" parent="1">
          <mxGeometry x="470" y="288" width="40" height="30" as="geometry" />
        </mxCell>
        <mxCell id="DflLgNh3QcK3dV--dXvt-107" value="yes" style="text;html=1;align=center;verticalAlign=middle;resizable=0;points=[];autosize=1;strokeColor=none;fillColor=none;" vertex="1" parent="1">
          <mxGeometry x="420" y="168" width="40" height="30" as="geometry" />
        </mxCell>
        <mxCell id="DflLgNh3QcK3dV--dXvt-108" value="no" style="text;html=1;align=center;verticalAlign=middle;resizable=0;points=[];autosize=1;strokeColor=none;fillColor=none;" vertex="1" parent="1">
          <mxGeometry x="610" y="158" width="40" height="30" as="geometry" />
        </mxCell>
        <mxCell id="DflLgNh3QcK3dV--dXvt-110" value="no" style="text;html=1;align=center;verticalAlign=middle;resizable=0;points=[];autosize=1;strokeColor=none;fillColor=none;" vertex="1" parent="1">
          <mxGeometry x="740" y="398" width="40" height="30" as="geometry" />
        </mxCell>
      </root>
    </mxGraphModel>
  </diagram>
</mxfile>
